<svg width="37" height="33" viewBox="0 0 37 33" fill="none" xmlns="http://www.w3.org/2000/svg">
<path d="M7.02964 24.6548L6.95278 24.7142C9.00961 26.436 11.5372 27.751 14.3669 28.5259L14.8463 28.6512C23.3527 30.7721 33.2541 26.0991 35.2406 18.1581C36.7069 11.3149 34.0763 6.18072 28.5076 4.79229C25.4692 4.03472 22.3129 4.7505 19.9529 6.65538M7.02964 24.6548L8.46249 23.501L10.6446 21.6908M7.02964 24.6548L6.14308 25.338L5.63307 25.7069C5.58388 25.7409 5.53719 25.7726 5.49301 25.802C4.2668 26.6177 2.59292 26.2947 1.7543 25.0806C0.915678 23.8666 1.22988 22.2211 2.45609 21.4055L2.82551 21.1432L3.3348 20.7553L4.47798 19.8443M10.6446 21.6908L11.1493 21.2631C12.552 22.2699 14.2367 23.0462 16.1256 23.5171C21.9377 24.9663 28.796 21.73 29.9963 16.9382C30.8853 12.7848 29.7418 10.5531 27.2276 9.9262C25.9644 9.61123 24.6632 9.86003 23.6352 10.5744L23.3557 10.7879L13.8062 19.0157L10.6446 21.6908ZM19.9529 6.65538L20.3127 6.3786L20.4184 6.30328C19.1563 3.77657 16.8277 1.88015 13.9844 1.17125C8.41573 -0.217184 3.68269 3.08107 1.75083 9.87027C0.861141 13.8415 1.58238 17.5606 3.4519 20.6614L4.47798 19.8443M19.9529 6.65538L16.1331 9.95018L15.7185 8.88374L15.572 8.56403C14.9997 7.45064 13.9677 6.62012 12.7044 6.30515C10.1902 5.67829 8.13282 7.11197 6.96788 11.1966C6.4895 13.3392 6.77119 15.3962 7.6513 17.2118L6.30092 18.3438M19.9529 6.65538L13.0708 12.5965L8.5702 16.4385L6.30092 18.3438M6.30092 18.3438L4.47798 19.8443M28.5153 26.6211L28.7165 27.0837L29.0591 27.8202L29.1872 28.0703C29.8869 29.3661 29.3918 30.9665 28.0814 31.6447C26.771 32.323 25.1414 31.8223 24.4417 30.5264C24.4164 30.4798 24.3901 30.4298 24.3627 30.3767L24.0855 29.8116L23.7488 29.0751L23.5502 28.6194C25.3103 28.1892 26.994 27.5122 28.5153 26.6211ZM22.4848 11.5356L23.3331 13.7233L25.9175 20.3054L26.4502 21.6206C25.0258 22.592 23.3043 23.295 21.4882 23.6354L20.2876 20.6317L18.1896 15.2361L22.4848 11.5356Z" stroke="#A441D9" stroke-width="1.55963" stroke-linejoin="round"/>
</svg>
