<svg width="80" height="80" viewBox="0 0 80 80" fill="none" xmlns="http://www.w3.org/2000/svg">
<path d="M25.1282 59.2207L25.0235 59.3533C29.2187 61.3933 34.0372 62.549 39.1383 62.666L40 62.6758C55.2467 62.6758 69.9889 50.6245 70 36.3885C69.5952 24.2238 62.996 16.6668 53.0149 16.6668C47.5688 16.6668 42.5439 19.2026 39.3628 23.4099M25.1282 59.2207L27.0606 56.6708L29.9813 52.6981M25.1282 59.2207L23.9196 60.7466L23.2142 61.5836C23.1455 61.6617 23.08 61.7349 23.0178 61.8031C21.2918 63.6954 18.3313 63.8546 16.4054 62.1588C14.4794 60.4629 14.3173 57.5541 16.0434 55.6618L16.5564 55.0637L17.2526 54.195L18.7984 52.1766M29.9813 52.6981L30.6529 51.764C33.4436 52.8727 36.6131 53.4739 39.9987 53.4739C50.4161 53.4739 60.6277 45.1273 60.6371 36.5363C60.3898 29.1535 57.5213 25.8686 53.0149 25.8686C50.7506 25.8686 48.6597 26.8359 47.2255 28.4739L46.8437 28.9518L34.1908 46.8537L29.9813 52.6981ZM39.3628 23.4099L39.8536 22.7915L40.0003 22.6199C36.8074 18.8872 32.08 16.6668 26.9838 16.6668C17.0027 16.6668 10.4035 24.2238 10 36.4932C10.1695 43.5688 12.9513 49.5413 17.4107 53.9872L18.7984 52.1766M39.3628 23.4099L34.3034 30.5769L33.155 28.9518L32.7732 28.4739C31.339 26.8359 29.2481 25.8686 26.9838 25.8686C22.4774 25.8686 19.6089 29.1535 19.3616 36.5363C19.4559 40.3533 20.7967 43.7059 23.0457 46.3993L21.2433 48.8777M39.3628 23.4099L30.2491 36.3309L24.2709 44.7077L21.2433 48.8777M21.2433 48.8777L18.7984 52.1766M62.212 53.4991L62.7461 54.195L63.6341 55.2937L63.9554 55.6618C65.6814 57.5541 65.5193 60.4629 63.5933 62.1588C61.6674 63.8546 58.7069 63.6954 56.9809 61.8031C56.9187 61.7349 56.8532 61.6617 56.7845 61.5836L56.0791 60.7466L55.2011 59.6455L54.6742 58.96C57.4633 57.4935 60.0197 55.6428 62.212 53.4991ZM45.6886 30.58L48.0405 33.9148L55.171 43.9344L56.6233 45.9297C54.6283 48.1681 52.0192 50.0788 49.0977 51.4173L45.8079 46.8537L39.9976 38.6316L45.6886 30.58Z" stroke="#A441D9" stroke-width="1.55963" stroke-linejoin="round"/>
<path d="M20 1.5H60V-1.5H20V1.5ZM78.5 20V60H81.5V20H78.5ZM60 78.5H20V81.5H60V78.5ZM1.5 60V20H-1.5V60H1.5ZM20 78.5C9.78273 78.5 1.5 70.2173 1.5 60H-1.5C-1.5 71.8741 8.12588 81.5 20 81.5V78.5ZM78.5 60C78.5 70.2173 70.2173 78.5 60 78.5V81.5C71.8741 81.5 81.5 71.8741 81.5 60H78.5ZM60 1.5C70.2173 1.5 78.5 9.78273 78.5 20H81.5C81.5 8.12588 71.8741 -1.5 60 -1.5V1.5ZM20 -1.5C8.12588 -1.5 -1.5 8.12588 -1.5 20H1.5C1.5 9.78273 9.78273 1.5 20 1.5V-1.5Z" fill="black" fill-opacity="0.2"/>
</svg>
