<svg width="51" height="51" viewBox="0 0 51 51" fill="none" xmlns="http://www.w3.org/2000/svg">
<path d="M9.03418 33.3763H42.3064V40.2265H9.03418V33.3763ZM9.03418 33.3763H42.3064V22.3567C42.3064 22.35 42.3009 22.3445 42.2942 22.3445H9.04638C9.03964 22.3445 9.03418 22.35 9.03418 22.3567V33.3763ZM32.8812 11.1133C34.8961 11.1133 36.5295 12.7426 36.5295 14.7525L36.517 14.4676L36.592 14.4475C39.7896 15.5281 42.1227 18.4478 42.296 21.928L42.3047 22.3205L42.3064 22.3323C42.3064 22.339 42.3009 22.3445 42.2942 22.3445H9.11661C9.10988 22.3445 9.10442 22.339 9.10442 22.3323C9.10442 22.3269 9.10794 22.3222 9.11308 22.3206L24.7947 17.576L29.5673 16.2764C29.3527 15.8129 29.233 15.2966 29.233 14.7525C29.233 12.7426 30.8664 11.1133 32.8812 11.1133ZM32.8812 18.3916C34.8961 18.3916 36.5295 16.7623 36.5295 14.7525C36.5295 12.7426 34.8961 11.1133 32.8812 11.1133C30.8664 11.1133 29.233 12.7426 29.233 14.7525C29.233 16.7623 30.8664 18.3916 32.8812 18.3916Z" stroke="#F9649E" stroke-width="1.55963" stroke-linejoin="round"/>
</svg>
