<svg width="88" height="88" viewBox="0 0 88 88" fill="none" xmlns="http://www.w3.org/2000/svg">
<path d="M27.0342 51.3763H60.3064V58.2265H27.0342V51.3763ZM27.0342 51.3763H60.3064V40.3567C60.3064 40.35 60.3009 40.3445 60.2942 40.3445H27.0464C27.0396 40.3445 27.0342 40.35 27.0342 40.3567V51.3763ZM50.8812 29.1133C52.8961 29.1133 54.5295 30.7426 54.5295 32.7525L54.517 32.4676L54.592 32.4475C57.7896 33.5281 60.1227 36.4478 60.296 39.928L60.3047 40.3205L60.3064 40.3323C60.3064 40.339 60.3009 40.3445 60.2942 40.3445H27.1166C27.1099 40.3445 27.1044 40.339 27.1044 40.3323C27.1044 40.3269 27.1079 40.3222 27.1131 40.3206L42.7947 35.576L47.5673 34.2764C47.3527 33.8129 47.233 33.2966 47.233 32.7525C47.233 30.7426 48.8664 29.1133 50.8812 29.1133ZM50.8812 36.3916C52.8961 36.3916 54.5295 34.7623 54.5295 32.7525C54.5295 30.7426 52.8961 29.1133 50.8812 29.1133C48.8664 29.1133 47.233 30.7426 47.233 32.7525C47.233 34.7623 48.8664 36.3916 50.8812 36.3916Z" stroke="#F9649E" stroke-width="1.55963" stroke-linejoin="round"/>
<rect x="0.779817" y="0.779817" width="85.7798" height="85.7798" rx="8.57798" stroke="black" stroke-opacity="0.2" stroke-width="1.55963"/>
</svg>
