<svg width="109" height="109" viewBox="0 0 109 109" fill="none" xmlns="http://www.w3.org/2000/svg">
<path d="M39.1762 33.2532L40.4836 32.524C46.4648 29.1882 53.3958 27.966 60.1573 29.055L61.6352 29.293C65.8152 29.9662 68.6581 33.9006 67.9848 38.0806C67.9165 38.505 67.8126 38.9228 67.6742 39.3297C65.7482 44.9938 65.0493 51.0029 65.6241 56.9578L66.2853 63.8091C60.6163 67.9446 53.3532 69.2253 46.6116 67.2781L44.8898 60.6139C43.3932 54.8215 40.6812 49.4138 36.9341 44.75C34.2822 41.4495 34.8081 36.6241 38.1086 33.9723C38.4437 33.7031 38.8008 33.4625 39.1762 33.2532ZM28.2811 68.9963L36.723 72.1462C38.5888 72.8423 40.6683 71.915 41.3972 70.0618C42.2448 67.9068 43.8323 66.1243 45.8751 65.0338L46.1866 64.8675L45.3512 61.8136C43.5491 55.2255 40.4116 49.0782 36.1335 43.7537L34.0915 41.2122L31.1254 43.0697C26.184 46.1642 22.7261 51.148 21.5574 56.86C20.5038 62.0093 23.3568 67.1589 28.2811 68.9963ZM22.2719 66.7541L24.8165 67.7035L29.9057 69.6024L32.3603 70.5183C33.727 71.0283 34.4398 72.5331 33.9686 73.9137L29.7008 86.4163C24.4995 81.849 21.7182 75.1225 22.1752 68.2156L22.2719 66.7541ZM84.098 59.1542L77.2426 65.0015C75.7274 66.2938 73.4562 66.1336 72.1374 64.6415C70.6039 62.9064 68.5025 61.7743 66.2099 61.4482L65.8603 61.3985L65.6008 58.2431C65.0409 51.4359 65.8868 44.5862 68.0857 38.1196L69.1353 35.033L72.5579 35.764C78.2597 36.9818 83.2136 40.4824 86.2654 45.4502C89.0166 49.9286 88.097 55.7434 84.098 59.1542ZM88.978 54.992L86.9116 56.7545L82.7788 60.2795L80.7854 61.9797C79.6756 62.9263 79.5204 64.5842 80.4354 65.7203L88.7219 76.0093C92.0475 69.9385 92.3605 62.6663 89.5687 56.3323L88.978 54.992Z" stroke="#D68BFD" stroke-width="1.55963" stroke-linejoin="round"/>
</svg>
