<svg width="108" height="108" viewBox="0 0 108 108" fill="none" xmlns="http://www.w3.org/2000/svg">
<path d="M38.5443 32.6215L39.8517 31.8923C45.8329 28.5565 52.764 27.3343 59.5254 28.4233L61.0034 28.6613C65.1834 29.3346 68.0262 33.2689 67.353 37.4489C67.2847 37.8733 67.1808 38.2911 67.0424 38.698C65.1163 44.3621 64.4175 50.3712 64.9922 56.3262L65.6535 63.1774C59.9845 67.313 52.7214 68.5937 45.9798 66.6465L44.2579 59.9822C42.7613 54.1898 40.0494 48.7821 36.3022 44.1184C33.6504 40.8178 34.1763 35.9924 37.4768 33.3406C37.8119 33.0714 38.169 32.8308 38.5443 32.6215ZM27.6493 68.3646L36.0912 71.5145C37.957 72.2107 40.0365 71.2833 40.7654 69.4301C41.6129 67.2752 43.2004 65.4926 45.2432 64.4021L45.5548 64.2358L44.7194 61.182C42.9173 54.5938 39.7797 48.4465 35.5017 43.122L33.4597 40.5805L30.4935 42.438C25.5522 45.5325 22.0943 50.5163 20.9256 56.2283C19.872 61.3776 22.725 66.5272 27.6493 68.3646ZM21.64 66.1224L24.1846 67.0718L29.2739 68.9708L31.7285 69.8867C33.0952 70.3966 33.808 71.9015 33.3368 73.282L29.069 85.7846C23.8677 81.2174 21.0864 74.4908 21.5433 67.5839L21.64 66.1224ZM83.4662 58.5226L76.6107 64.3698C75.0956 65.6621 72.8243 65.502 71.5055 64.0098C69.9721 62.2747 67.8706 61.1426 65.5781 60.8165L65.2284 60.7668L64.9689 57.6114C64.4091 50.8042 65.2549 43.9545 67.4539 37.488L68.5035 34.4013L71.9261 35.1323C77.6278 36.3501 82.5817 39.8507 85.6336 44.8186C88.3848 49.2969 87.4651 55.1118 83.4662 58.5226ZM88.3462 54.3603L86.2798 56.1228L82.1469 59.6478L80.1536 61.348C79.0437 62.2946 78.8886 63.9525 79.8036 65.0886L88.0901 75.3776C91.4157 69.3068 91.7286 62.0347 88.9369 55.7006L88.3462 54.3603Z" stroke="#D68BFD" stroke-width="1.55963" stroke-linejoin="round"/>
<path d="M19.8698 13.6611L72.0646 4.45778L71.7173 2.48817L19.5225 11.6915L19.8698 13.6611ZM94.0753 19.8698L103.279 72.0646L105.248 71.7173L96.0449 19.5225L94.0753 19.8698ZM87.8666 94.0753L35.6718 103.279L36.0191 105.248L88.2139 96.0449L87.8666 94.0753ZM13.6611 87.8666L4.45777 35.6718L2.48816 36.0191L11.6915 88.2139L13.6611 87.8666ZM35.6718 103.279C25.3378 105.101 15.4833 98.2006 13.6611 87.8666L11.6915 88.2139C13.7055 99.6357 24.5973 107.262 36.0191 105.248L35.6718 103.279ZM103.279 72.0646C105.101 82.3986 98.2006 92.2531 87.8666 94.0753L88.2139 96.0449C99.6357 94.0309 107.262 83.1391 105.248 71.7173L103.279 72.0646ZM72.0646 4.45778C82.3986 2.63562 92.2531 9.53582 94.0753 19.8698L96.0449 19.5225C94.0309 8.10074 83.1391 0.474198 71.7173 2.48817L72.0646 4.45778ZM19.5225 11.6915C8.10073 13.7055 0.474187 24.5973 2.48816 36.0191L4.45777 35.6718C2.63561 25.3378 9.53581 15.4833 19.8698 13.6611L19.5225 11.6915Z" fill="black" fill-opacity="0.4"/>
</svg>
