<svg width="53" height="55" viewBox="0 0 53 55" fill="none" xmlns="http://www.w3.org/2000/svg">
<path d="M31.5827 6.16772C31.5827 9.10174 29.1843 11.4802 26.2256 11.4802C23.2669 11.4802 20.8684 9.10174 20.8684 6.16772M31.5827 6.16772C31.5827 3.23371 29.1843 0.855225 26.2256 0.855225C23.2669 0.855225 20.8684 3.23371 20.8684 6.16772M31.5827 6.16772C31.5827 6.35886 31.5726 6.54764 31.5527 6.73356C42.4601 9.07754 50.7158 18.4882 51.2028 29.8923L51.1637 29.1983C51.2045 29.4844 51.2256 29.7767 51.2256 30.074C51.2256 33.497 48.4274 36.2719 44.9756 36.2719M20.8684 6.16772C20.8684 6.35886 20.8786 6.54764 20.9021 6.73098C10.2903 9.0132 2.1902 17.9773 1.30583 28.9585L1.29335 29.1581C1.24871 29.457 1.22559 29.7628 1.22559 30.074C1.22559 33.497 4.02381 36.2719 7.47559 36.2719M44.9756 36.2719C41.6807 36.2719 38.9813 33.7435 38.7427 30.5365L38.7225 30.1115L38.7084 30.5365C38.4699 33.7435 35.7705 36.2719 32.4756 36.2719M44.9756 36.2719C45.911 36.2719 46.7984 36.0681 47.5951 35.7029L44.0827 53.9802H8.36844L4.85627 35.703C5.65295 36.0682 6.54027 36.2719 7.47559 36.2719M44.9756 36.2719C41.5238 36.2719 38.7256 33.497 38.7256 30.074M7.47559 36.2719C10.7583 36.2719 13.4499 33.7621 13.7057 30.572L13.7225 30.1115L13.7427 30.5365C13.9813 33.7435 16.6807 36.2719 19.9756 36.2719M7.47559 36.2719C10.9274 36.2719 13.7256 33.497 13.7256 30.074C13.7256 33.497 16.5238 36.2719 19.9756 36.2719M19.9756 36.2719C23.2705 36.2719 25.9699 33.7435 26.2084 30.5365L26.2225 30.1115M19.9756 36.2719C23.4146 36.2719 26.2019 33.5171 26.2225 30.1115M26.2225 30.1115L26.2427 30.5365C26.4813 33.7435 29.1807 36.2719 32.4756 36.2719M26.2225 30.1115L26.2256 30.074C26.2256 33.497 29.0238 36.2719 32.4756 36.2719M32.4756 36.2719C35.9274 36.2719 38.7256 33.497 38.7256 30.074M38.7256 30.074L38.7318 29.849C38.7243 29.925 38.7256 29.9993 38.7256 30.074ZM37.3863 41.5844L36.4934 48.6677M26.672 41.5844V48.6677M15.9577 41.5844L16.8506 48.6677" stroke="#F9649E" stroke-width="1.55963" stroke-linejoin="round"/>
</svg>
