<svg width="160" height="160" viewBox="0 0 160 160" fill="none" xmlns="http://www.w3.org/2000/svg">
<path fill-rule="evenodd" clip-rule="evenodd" d="M80 100C91.0457 100 100 91.0458 100 80.0001C100 68.9544 91.0457 60.0001 80 60.0001C68.9543 60.0001 60 68.9544 60 80.0001C60 91.0458 68.9543 100 80 100ZM46.6667 46.6667V60.0001V46.6667ZM100 33.3334V46.6667V33.3334ZM60 33.3334L66.6667 40.0001L60 33.3334ZM120 66.6667L126.667 73.3334L120 66.6667ZM40 66.6667L33.3333 73.3334L40 66.6667ZM80 46.6667L73.3333 53.3334L80 46.6667ZM113.333 53.3334L106.667 60.0001L113.333 53.3334ZM86.6667 26.6667L80 33.3334L86.6667 26.6667ZM60 113.333V126.667V113.333ZM120 86.6667V100V86.6667ZM86.6667 120L80 126.667L86.6667 120ZM100 106.667L106.667 113.333L100 106.667ZM46.6667 80.0001V93.3334V80.0001ZM40 100L33.3333 106.667L40 100ZM80 140C113.137 140 140 113.137 140 80.0001C140 46.863 113.137 20.0001 80 20.0001C46.8629 20.0001 20 46.863 20 80.0001C20 113.137 46.8629 140 80 140Z" stroke="#A441D9" stroke-width="1.55963"/>
<path d="M20 1.5H140V-1.5H20V1.5ZM158.5 20V140H161.5V20H158.5ZM140 158.5H20V161.5H140V158.5ZM1.5 140V20H-1.5V140H1.5ZM20 158.5C9.78273 158.5 1.5 150.217 1.5 140H-1.5C-1.5 151.874 8.12588 161.5 20 161.5V158.5ZM158.5 140C158.5 150.217 150.217 158.5 140 158.5V161.5C151.874 161.5 161.5 151.874 161.5 140H158.5ZM140 1.5C150.217 1.5 158.5 9.78273 158.5 20H161.5C161.5 8.12588 151.874 -1.5 140 -1.5V1.5ZM20 -1.5C8.12588 -1.5 -1.5 8.12588 -1.5 20H1.5C1.5 9.78273 9.78273 1.5 20 1.5V-1.5Z" fill="black" fill-opacity="0.2"/>
</svg>
