<svg width="122" height="122" viewBox="0 0 122 122" fill="none" xmlns="http://www.w3.org/2000/svg">
<path fill-rule="evenodd" clip-rule="evenodd" d="M61 81C72.0457 81 81 72.0457 81 61C81 49.9543 72.0457 41 61 41C49.9543 41 41 49.9543 41 61C41 72.0457 49.9543 81 61 81ZM27.6667 27.6667V41V27.6667ZM81 14.3333V27.6667V14.3333ZM41 14.3333L47.6667 21L41 14.3333ZM101 47.6667L107.667 54.3333L101 47.6667ZM21 47.6667L14.3333 54.3333L21 47.6667ZM61 27.6667L54.3333 34.3333L61 27.6667ZM94.3333 34.3333L87.6667 41L94.3333 34.3333ZM67.6667 7.66667L61 14.3333L67.6667 7.66667ZM41 94.3333V107.667V94.3333ZM101 67.6667V81V67.6667ZM67.6667 101L61 107.667L67.6667 101ZM81 87.6667L87.6667 94.3333L81 87.6667ZM27.6667 61V74.3333V61ZM21 81L14.3333 87.6667L21 81ZM61 121C94.1371 121 121 94.1371 121 61C121 27.8629 94.1371 1 61 1C27.8629 1 1 27.8629 1 61C1 94.1371 27.8629 121 61 121Z" stroke="#A441D9" stroke-width="1.55963"/>
</svg>
