<?xml version="1.0" encoding="utf-8"?>
<!-- Generator: Adobe Illustrator 18.0.0, SVG Export Plug-In . SVG Version: 6.00 Build 0)  -->
<!DOCTYPE svg PUBLIC "-//W3C//DTD SVG 1.1//EN" "http://www.w3.org/Graphics/SVG/1.1/DTD/svg11.dtd">
<svg version="1.1" xmlns="http://www.w3.org/2000/svg" xmlns:xlink="http://www.w3.org/1999/xlink" x="0px" y="0px"
	 viewBox="0 0 1080 1080" enable-background="new 0 0 1080 1080" xml:space="preserve">
<g id="Layer_26">
	<radialGradient id="SVGID_1_" cx="542" cy="537" r="540" gradientUnits="userSpaceOnUse">
		<stop  offset="0" style="stop-color:#FFFFFF"/>
		<stop  offset="0.3196" style="stop-color:#FFFDFE"/>
		<stop  offset="0.4868" style="stop-color:#FFF5FA"/>
		<stop  offset="0.6187" style="stop-color:#FFE7F2"/>
		<stop  offset="0.7321" style="stop-color:#FFD4E8"/>
		<stop  offset="0.8337" style="stop-color:#FFBCDB"/>
		<stop  offset="0.9254" style="stop-color:#FF9ECB"/>
		<stop  offset="1" style="stop-color:#FF7FBB"/>
	</radialGradient>
	<circle fill="url(#SVGID_1_)" cx="542" cy="537" r="540"/>
</g>
<g id="Layer_25">
	<radialGradient id="SVGID_2_" cx="541.2486" cy="534.2486" r="287.2486" gradientUnits="userSpaceOnUse">
		<stop  offset="8.673470e-002" style="stop-color:#FFFFFF"/>
		<stop  offset="1" style="stop-color:#FF5597"/>
	</radialGradient>
	<circle fill="url(#SVGID_2_)" cx="541.2" cy="534.2" r="287.2"/>
</g>
<g id="Layer_24">
	<g opacity="0.7">
		<path fill="#FFFFFF" d="M291.7,534.2c0,0,0-1.5,0.1-4.5c0-1.5,0.1-3.3,0.1-5.5c0-1.1,0-2.3,0.1-3.5c0.1-1.3,0.2-2.6,0.3-4
			c0.1-1.4,0.2-2.9,0.3-4.5c0.1-1.6,0.2-3.3,0.5-5c0.5-3.5,0.9-7.3,1.4-11.5c0.4-2.1,0.7-4.2,1.1-6.4c0.2-1.1,0.4-2.2,0.6-3.4
			c0.2-1.1,0.4-2.3,0.7-3.5c0.5-2.3,1.1-4.7,1.6-7.2c0.3-1.2,0.5-2.5,0.9-3.8c0.3-1.3,0.7-2.5,1-3.8c0.7-2.6,1.4-5.2,2.2-8
			c0.9-2.7,1.8-5.4,2.7-8.3c0.9-2.8,2-5.7,3.1-8.6c1.1-2.9,2.2-5.9,3.5-8.8c1.3-3,2.6-6,4-9.1c1.5-3,3-6.1,4.5-9.3
			c1.6-3.1,3.4-6.2,5.1-9.4c0.4-0.8,0.9-1.6,1.3-2.4c0.5-0.8,1-1.6,1.4-2.4c1-1.6,1.9-3.2,2.9-4.8c8-12.7,17.6-25.6,29.1-38.1
			c5.7-6.3,12-12.3,18.6-18.3c1.6-1.6,3.4-2.9,5.1-4.4c1.7-1.5,3.5-2.9,5.2-4.4c1.8-1.4,3.6-2.8,5.5-4.2c1.9-1.4,3.7-2.8,5.6-4.2
			c7.7-5.3,15.6-10.6,24.2-15.4c2.1-1.2,4.3-2.4,6.4-3.6c2.2-1.1,4.4-2.2,6.7-3.3c4.4-2.3,9.1-4.2,13.7-6.3c2.3-1.1,4.7-1.9,7.1-2.8
			c2.4-0.9,4.8-1.9,7.2-2.7c2.5-0.8,4.9-1.6,7.4-2.4c1.2-0.4,2.5-0.8,3.7-1.2c1.3-0.4,2.5-0.7,3.8-1.1c2.5-0.7,5.1-1.4,7.7-2.1
			c2.6-0.7,5.2-1.2,7.8-1.8c1.3-0.3,2.6-0.6,3.9-0.9l2-0.4l2-0.3c2.7-0.4,5.3-0.9,8-1.3c2.7-0.5,5.4-0.8,8.1-1.1
			c2.7-0.3,5.5-0.7,8.2-0.9c2.8-0.2,5.5-0.4,8.3-0.5c1.4-0.1,2.8-0.2,4.2-0.3c1.4,0,2.9-0.1,4.3-0.1c2.7,0,5.4-0.1,8.1-0.1l1,0
			l1.1,0l2.2,0.1c1.4,0.1,2.9,0.1,4.4,0.2c5.9,0.1,11.5,0.7,17.3,1.2c11.5,1.3,23.1,3.1,34.6,6.1c5.8,1.3,11.5,3.1,17.3,4.8
			c2.9,0.9,5.7,2,8.5,3l4.3,1.5l4.2,1.7c11.3,4.4,22.3,10,33.1,16.1c2.7,1.6,5.3,3.2,8,4.8c2.6,1.7,5.2,3.4,7.8,5.2
			c1.3,0.9,2.6,1.7,3.9,2.6l3.8,2.8l3.8,2.8l1.9,1.4l1.8,1.5c2.4,2,4.9,4,7.3,6c2.4,2,4.7,4.2,7.1,6.3c1.2,1.1,2.4,2.1,3.5,3.2
			l3.4,3.4l3.4,3.4c1.1,1.1,2.3,2.2,3.3,3.5c2.1,2.4,4.3,4.7,6.5,7.1c2.1,2.4,4.1,4.9,6.2,7.4c1,1.2,2.1,2.5,3.1,3.7l2.9,3.9
			l2.9,3.9c1,1.3,1.9,2.6,2.8,4c1.8,2.7,3.6,5.4,5.4,8.1c0.9,1.3,1.7,2.8,2.6,4.1l2.5,4.2c0.8,1.4,1.7,2.8,2.5,4.2l2.3,4.3l2.3,4.3
			l1.1,2.2c0.4,0.7,0.7,1.5,1.1,2.2c1.4,3,2.8,5.9,4.2,8.9c1.3,3,2.5,6.1,3.8,9.1c0.6,1.5,1.3,3,1.8,4.6l1.6,4.6l1.6,4.7
			c0.5,1.6,1.1,3.1,1.5,4.7c4,12.6,6.8,25.5,8.9,38.5l1.3,9.8c0.1,0.8,0.2,1.6,0.3,2.5l0.2,2.5l0.4,4.9l0.4,4.9
			c0.1,1.6,0.1,3.3,0.2,5l0.3,9.9l-0.2,9.7l-0.1,2.3l0,1.1c0,0.4-0.1,0.8-0.1,1.3l-0.4,5.1l-0.4,5.1l-0.2,2.6
			c-0.1,0.8-0.2,1.6-0.3,2.5l-1.3,9.8c-0.2,1.6-0.5,3.3-0.8,4.9l-0.9,4.9l-0.9,4.9l-1.1,4.8c-0.8,3.2-1.5,6.4-2.4,9.6l-2.8,9.5
			c-0.4,1.6-1,3.1-1.5,4.7l-1.6,4.7l-1.6,4.7c-0.6,1.5-1.2,3-1.8,4.6c-1.3,3-2.4,6.1-3.8,9.1c-1.4,3-2.8,5.9-4.2,8.9
			c-0.4,0.7-0.7,1.5-1.1,2.2l-1.1,2.2l-2.3,4.3l-2.3,4.3c-0.8,1.4-1.7,2.8-2.5,4.2c-1.7,2.8-3.3,5.6-5.1,8.3
			c-1.8,2.7-3.6,5.4-5.4,8.1c-7.5,10.6-15.5,20.7-24.3,30c-1.1,1.2-2.2,2.3-3.3,3.5l-3.4,3.4l-3.4,3.4c-1.2,1.1-2.4,2.1-3.5,3.2
			c-2.4,2.1-4.7,4.3-7.1,6.3c-2.5,2-4.9,4-7.3,6l-1.8,1.5l-1.9,1.4l-3.8,2.8l-3.8,2.8c-1.3,0.9-2.6,1.8-3.9,2.6
			c-2.6,1.7-5.2,3.5-7.8,5.2c-2.7,1.6-5.3,3.2-8,4.8c-2.6,1.6-5.4,3-8.1,4.5c-2.7,1.4-5.4,3-8.2,4.2c-2.8,1.3-5.6,2.6-8.3,3.9
			c-2.8,1.2-5.6,2.3-8.4,3.5l-4.2,1.7l-4.3,1.5c-2.9,1-5.7,2-8.5,3c-5.8,1.7-11.5,3.5-17.3,4.8c-11.5,3-23.1,4.8-34.6,6.1
			c-5.8,0.5-11.5,1.1-17.2,1.2c-2.9,0.1-5.7,0.3-8.5,0.3c-2.8,0-5.7-0.1-8.5-0.1l-2.1,0l-1.1,0l-0.5,0c-0.1,0-0.8,0-0.8,0
			c-1.3-0.1-2.7-0.2-4-0.3c-2.7-0.2-5.4-0.4-8-0.5c-2.8-0.3-5.6-0.6-8.4-0.9c-2.8-0.3-5.6-0.6-8.2-1.1c-2.7-0.5-5.4-0.9-8-1.4
			l-2-0.3l-2-0.4c-1.3-0.3-2.6-0.6-3.9-0.9c-2.6-0.6-5.2-1.1-7.8-1.8c-2.6-0.7-5.1-1.4-7.7-2.1c-1.3-0.4-2.5-0.7-3.8-1.1
			c-1.2-0.4-2.5-0.8-3.7-1.2c-2.5-0.8-5-1.6-7.4-2.4c-2.4-0.9-4.8-1.8-7.2-2.7c-2.4-0.9-4.8-1.8-7.1-2.8c-4.6-2.1-9.3-3.9-13.7-6.3
			c-2.2-1.1-4.5-2.2-6.7-3.3c-2.2-1.2-4.3-2.4-6.4-3.6c-8.5-4.7-16.5-10-24.2-15.4c-15.2-10.9-28.4-23-39.9-35.5
			c-11.5-12.5-21.1-25.4-29.1-38.1c-1-1.6-2-3.2-2.9-4.8c-0.5-0.8-1-1.6-1.4-2.4c-0.5-0.8-0.9-1.6-1.3-2.4c-1.7-3.2-3.5-6.3-5.1-9.4
			c-1.5-3.1-3.1-6.2-4.5-9.3c-1.4-3.1-2.7-6.1-4-9.1c-1.4-2.9-2.4-5.9-3.5-8.8c-1.1-2.9-2.2-5.7-3.1-8.6c-0.9-2.8-1.8-5.6-2.7-8.3
			c-0.8-2.7-1.5-5.4-2.2-8c-0.4-1.3-0.7-2.6-1-3.8c-0.3-1.3-0.6-2.5-0.9-3.8c-0.6-2.5-1.1-4.9-1.6-7.2c-0.3-1.2-0.5-2.3-0.7-3.5
			c-0.2-1.1-0.4-2.3-0.6-3.4c-0.4-2.2-0.7-4.3-1.1-6.4c-0.6-4.1-1-8-1.4-11.5c-0.3-1.7-0.3-3.4-0.5-5c-0.1-1.6-0.2-3.1-0.3-4.5
			c-0.1-1.4-0.2-2.8-0.3-4c-0.1-1.3-0.1-2.4-0.1-3.5c-0.1-2.2-0.1-4-0.1-5.5C291.7,535.8,291.7,534.2,291.7,534.2z M291.7,534.2
			c0,0,0,1.5,0.1,4.5c0,1.5,0.1,3.3,0.2,5.5c0,1.1,0,2.3,0.1,3.5c0.1,1.3,0.2,2.6,0.3,4c0.8,11.4,2.7,28.3,8.6,48.9
			c0.8,2.6,1.5,5.2,2.3,7.9c0.9,2.7,1.9,5.4,2.9,8.2c0.9,2.8,2.1,5.6,3.3,8.4c1.2,2.9,2.3,5.8,3.7,8.7c5.3,11.8,12.1,24,20.5,36.2
			c8.4,12.2,18.5,24.5,30.3,36c11.9,11.6,25.5,22.5,40.9,32c15.4,9.5,32.4,17.6,50.7,23.8c2.3,0.8,4.6,1.4,7,2.1
			c2.3,0.7,4.7,1.4,7,2c2.4,0.6,4.8,1.1,7.2,1.7c1.2,0.3,2.4,0.6,3.6,0.9c1.2,0.3,2.4,0.5,3.7,0.7c2.4,0.5,4.9,0.9,7.3,1.4
			c2.5,0.4,5,0.7,7.4,1.1c1.2,0.2,2.5,0.3,3.7,0.5l1.9,0.3l1.9,0.2c2.5,0.2,5,0.4,7.6,0.6c2.5,0.3,5,0.3,7.5,0.4
			c2.5,0.1,5,0.2,7.5,0.2c2.7,0,5.3-0.1,8-0.1c1.3,0,2.7,0,4-0.1c1.2-0.1,2.4-0.2,3.6-0.3c2.6-0.2,5.2-0.4,7.8-0.5
			c2.6-0.2,5.2-0.6,7.8-0.9c5.2-0.5,10.4-1.5,15.6-2.4c10.3-2.1,20.7-4.6,30.8-8.1c5.1-1.6,10.1-3.7,15.1-5.6c2.5-1,4.9-2.2,7.4-3.2
			l3.7-1.6l3.6-1.8c19.4-9.5,37.8-21.9,54.2-36.6c8.3-7.3,15.9-15.4,23.2-23.8c1.8-2.1,3.5-4.3,5.3-6.4c1.7-2.2,3.3-4.5,5-6.7
			c0.8-1.1,1.7-2.2,2.5-3.3l2.3-3.5l2.3-3.5c0.8-1.2,1.6-2.3,2.3-3.5c6-9.4,11.2-19.3,15.9-29.5c1.1-2.6,2.2-5.1,3.4-7.7
			c1.1-2.6,2-5.2,3-7.9c0.5-1.3,1-2.6,1.5-3.9l1.3-4l1.3-4c0.4-1.3,0.9-2.7,1.2-4l2.2-8.1c0.4-1.3,0.6-2.7,1-4.1l0.9-4.1l0.9-4.1
			l0.7-4.2l0.7-4.2c0.2-1.4,0.5-2.8,0.7-4.2l1-8.4c0.1-0.7,0.2-1.4,0.2-2.1l0.1-2l0.3-4l0.3-4c0-0.3,0.1-0.6,0.1-1l0-1.1l0.1-2.3
			l0.2-8.7c-0.1-11.3-0.8-22.6-2.4-33.7c-0.1-1.4-0.4-2.8-0.7-4.2l-0.7-4.2l-0.7-4.2l-0.9-4.1l-0.9-4.1c-0.3-1.4-0.5-2.8-1-4.1
			l-2.2-8.1c-3.3-10.7-6.9-21.4-11.6-31.6c-0.3-0.6-0.5-1.3-0.8-1.9l-0.9-1.9l-1.8-3.8l-1.8-3.8c-0.6-1.2-1.3-2.5-2-3.7
			c-1.4-2.4-2.7-4.9-4.1-7.3c-1.5-2.4-2.9-4.8-4.4-7.2c-0.7-1.2-1.5-2.4-2.3-3.5l-2.3-3.5l-2.3-3.5c-0.8-1.1-1.7-2.2-2.5-3.4
			c-1.7-2.2-3.3-4.5-5-6.7c-1.8-2.2-3.5-4.3-5.3-6.4c-7.2-8.4-14.9-16.5-23.2-23.8c-0.5-0.5-1-0.9-1.5-1.4l-1.6-1.3l-3.2-2.7
			l-3.2-2.7c-1.1-0.9-2.2-1.7-3.3-2.5c-2.2-1.7-4.4-3.4-6.6-5c-2.3-1.6-4.5-3.1-6.8-4.7c-9.1-6-18.5-11.7-28.2-16.4l-3.6-1.8
			l-3.7-1.6c-2.5-1.1-4.9-2.2-7.4-3.3c-5-1.9-10-4-15.1-5.6c-10.1-3.5-20.5-6-30.8-8.1c-5.2-0.9-10.4-1.9-15.5-2.4
			c-1.3-0.2-2.5-0.3-3.8-0.5l-1.9-0.2l-1-0.1l-1-0.1c-2.7-0.2-5.4-0.4-8.1-0.5c-1.3-0.1-2.5-0.2-3.8-0.2c-1.3,0-2.6,0-3.9-0.1
			c-2.6,0-5.2-0.1-7.7-0.1c-2.6,0-5.1,0.2-7.7,0.2c-2.6,0.1-5.1,0.1-7.6,0.4c-2.5,0.2-5.1,0.4-7.6,0.6l-1.9,0.2l-1.9,0.3
			c-1.2,0.2-2.5,0.3-3.7,0.5c-2.5,0.4-5,0.6-7.4,1.1c-2.5,0.5-4.9,0.9-7.3,1.4c-1.2,0.2-2.4,0.4-3.7,0.7c-1.2,0.3-2.4,0.6-3.6,0.9
			c-2.4,0.6-4.8,1.1-7.2,1.7c-2.4,0.6-4.7,1.4-7,2c-1.2,0.3-2.3,0.7-3.5,1c-0.6,0.2-1.2,0.3-1.7,0.5l-1.7,0.6
			c-18.3,6.2-35.4,14.2-50.7,23.8c-15.4,9.5-29,20.5-40.9,32.1c-11.9,11.6-21.9,23.8-30.3,36.1c-8.4,12.2-15.2,24.4-20.5,36.2
			c-1.4,2.9-2.5,5.8-3.7,8.7c-1.2,2.9-2.4,5.6-3.3,8.4c-1,2.8-1.9,5.5-2.9,8.2c-0.8,2.7-1.6,5.3-2.3,7.9
			c-5.9,20.6-7.9,37.5-8.6,48.9c-0.1,1.4-0.2,2.8-0.3,4c-0.1,1.3-0.1,2.4-0.1,3.5c-0.1,2.2-0.1,4-0.2,5.5
			C291.7,532.7,291.7,534.2,291.7,534.2z"/>
	</g>
</g>
<g id="Layer_23">
	<circle fill="none" stroke="#FFFFFF" stroke-width="30" stroke-miterlimit="10" cx="541.6" cy="538.4" r="92.6"/>
</g>
<g id="Layer_22">
</g>
<g id="Layer_21">
	<path opacity="0.1" fill="#FFFFFF" d="M724.3,459c0,0,8.2-29-0.3-41.5c-6.4-9.4-47.4-14.7-55.5-15.5c-34.7-3.3-34-72.3-53.5-66
		s-36.2,28.5-55.5,30.5s5-50.4-6.5-54.5c-31.8-11.3-35.3,57.8-55,51.5c-19.8-6.3-49.8-56.3-69.5-34c-16.1,18.3,49.6,67.5,7.2,68.2
		c0,0-43-25.8-52.4-14c-9.3,11.8,0.6,26-1.3,38.8c-2.3,16-38.8-7.5-45.4-0.1c-7.8,8.7-2.9,33.4-2.9,33.4L466.5,480l81.1-25
		l88.4,27.4l78-25.4L724.3,459z"/>
</g>
<g id="Layer_20">
	<path opacity="0.1" fill="#FFFFFF" d="M734.3,457c0,0,8.2-29-0.3-41.5c-6.4-9.4-47.4-14.7-55.5-15.5c-34.7-3.3-34-72.3-53.5-66
		s-36.2,28.5-55.5,30.5s5-50.4-6.5-54.5c-31.8-11.3-35.3,57.8-55,51.5c-19.8-6.3-49.8-56.3-69.5-34c-16.1,18.3,49.6,67.5,7.2,68.2
		c0,0-43-25.8-52.4-14c-9.3,11.8,0.6,26-1.3,38.8c-2.3,16-38.8-7.5-45.4-0.1c-7.8,8.7-2.9,33.4-2.9,33.4L476.5,478l81.1-25
		l88.4,27.4l78-25.4L734.3,457z"/>
</g>
<g id="Layer_19">
	<g opacity="0.6">
		<g>
			<g>
				<path fill="#FFFFFF" d="M333.2,630.2l-4.8-13.1c-0.5-1.4-13.1-35.9-13.1-77.7s12.6-76.3,13.1-77.7l4.8-13.1h64.3
					c19.4,0,35.4,4.6,47.5,13.6c13.7,10.2,21,24.9,21,42.5c0,10-2.5,19.1-7.3,27c1.3,1.4,2.4,2.8,3.6,4.3c7.1,9.7,10.7,20.8,10.7,33
					c0,24.5-11.5,38.7-21.2,46.2c-12.6,9.9-30,14.9-51.7,14.9H333.2z"/>
			</g>
			<g>
				<path fill="#FFFFFF" d="M540.4,632.6c-25.5,0-46.9-8.9-63.4-26.4c-16.2-17.2-24.5-39.7-24.5-66.8c0-27.2,8.2-49.7,24.5-66.9
					c16.6-17.5,37.9-26.3,63.4-26.3c25.5,0,46.7,8.9,63.2,26.4c16.2,17.2,24.4,39.7,24.4,66.8c0,27.2-8.2,49.7-24.4,66.8
					C587.1,623.7,565.8,632.6,540.4,632.6z M540.5,502.2c-8.6,0-14.9,2.6-20.2,8.5c-5.6,6.2-8.5,15.8-8.5,28.7
					c0,12.8,2.9,22.4,8.5,28.7c5.3,5.9,11.4,8.5,19.8,8.5c8.5,0,14.7-2.6,20-8.5c5.6-6.2,8.4-15.9,8.4-28.7
					c0-12.9-2.8-22.5-8.4-28.8C554.9,504.8,548.9,502.2,540.5,502.2z"/>
			</g>
			<g>
				<path fill="#FFFFFF" d="M692.2,632.6c-25.8,0-46.9-8.9-62.8-26.3c-15.3-16.9-23.1-39.4-23.1-66.9c0-27.5,7.8-50,23.1-66.9
					c15.8-17.5,37-26.3,62.8-26.3c19.8,0,37.1,5.6,51.5,16.6c16.6,12.7,24.9,27.8,26,47.5l1.3,21.2h-58.9l-1.6-18.3
					c-0.3-3.3-1.3-5.2-3.8-7.1c-3.4-2.6-8.1-3.9-14.4-3.9c-10.9,0-15.8,4.1-18.8,7.7c-5.2,6.1-7.8,16-7.8,29.4
					c0,13.4,2.6,23.3,7.8,29.5c3,3.6,7.8,7.7,18.5,7.7c6.4,0,11.3-1.3,14.4-3.8c1-0.8,3.5-2.8,4.1-9.3l1.6-18.2h58.6l-2,21.8
					c-1.9,21.2-10.1,37.7-24.4,48.9C730.3,627,712.7,632.6,692.2,632.6z"/>
			</g>
		</g>
	</g>
</g>
<g id="Layer_18">
	<g>
		<path d="M456.7,569c0,13.3-4.5,23.4-13.5,30.5c-9,7.1-22.1,10.6-39.3,10.6h-53V468.6h50.4c15.1,0,26.9,3.2,35.5,9.7
			c8.6,6.4,12.9,15.3,12.9,26.5c0,13.7-6.8,23.8-20.4,30.3c9.1,2.3,16,6.6,20.5,12.8C454.5,554,456.7,561.1,456.7,569z M369.6,527.9
			h31.5c10.4,0,18-1.7,22.9-5c4.9-3.3,7.3-8.8,7.3-16.6c0-7-2.4-12.2-7.1-15.7c-4.8-3.5-13-5.3-24.8-5.3h-29.7V527.9z M369.6,593.4
			h34.1c22.4,0,33.6-8.1,33.6-24.3c0-8.4-2.6-14.6-7.8-18.5c-5.2-3.9-14.6-5.8-28.2-5.8h-31.7V593.4z"/>
		<path d="M544.1,466.2c19.8,0,36.1,6.7,48.7,20.1c12.6,13.4,18.9,31.1,18.9,53.1c0,22-6.3,39.7-18.9,53.1
			c-12.6,13.4-28.8,20.1-48.7,20.1c-19.9,0-36.2-6.7-48.9-20.1c-12.7-13.4-19-31.1-19-53.1c0-22,6.3-39.7,19-53.1
			C508,472.9,524.2,466.2,544.1,466.2z M544,596.6c14.2,0,25.8-5,34.8-15.1c9-10,13.6-24.1,13.6-42.1c0-18-4.5-32.1-13.5-42.1
			c-9-10-20.5-15.1-34.5-15.1c-14.2,0-25.9,5-35,15.1c-9.1,10-13.7,24.1-13.7,42.1c0,18,4.5,32,13.6,42.1
			C518.4,591.5,529.9,596.6,544,596.6z"/>
		<path d="M696,612.6c-20,0-36-6.6-48-19.8c-11.9-13.2-17.9-31-17.9-53.5c0-22.5,6-40.3,17.9-53.5c11.9-13.2,27.9-19.7,48-19.7
			c15.4,0,28.5,4.2,39.3,12.5c10.8,8.3,16.9,19.3,18.3,32.8h-19.3c-0.8-8.9-4.7-16.1-11.6-21.3c-7-5.3-15.8-7.9-26.4-7.9
			c-14.4,0-25.7,4.9-34.1,14.8c-8.4,9.9-12.6,24-12.6,42.3c0,18.3,4.2,32.4,12.5,42.3c8.3,9.9,19.6,14.9,33.8,14.9
			c11.1,0,20-2.7,26.8-8.1s10.7-13.1,11.6-23.2h19.3c-1.4,15.1-7.3,26.7-17.8,35C725.3,608.5,712,612.6,696,612.6z"/>
	</g>
</g>
<g id="Layer_17">
	<g>
		<path d="M361.6,692.7c0,0,0.6-0.3,1.7-0.8c1.1-0.5,2.7-1.2,4.7-2.1c1-0.4,2.1-0.9,3.4-1.5c1.2-0.5,2.6-1,4.1-1.5
			c1.5-0.5,3-1.1,4.6-1.7c1.6-0.6,3.4-1.2,5.2-1.8c3.6-1.1,7.6-2.4,11.8-3.6c4.2-1.1,8.6-2.4,13.3-3.4c2.3-0.5,4.7-1.1,7.1-1.6
			c1.2-0.3,2.4-0.6,3.6-0.8c1.2-0.2,2.4-0.5,3.7-0.7c4.9-1,9.9-2,14.9-2.8c2.5-0.4,5-0.8,7.5-1.3c2.5-0.4,5-0.8,7.4-1.1
			c4.9-0.8,9.8-1.4,14.5-2c4.7-0.6,9.3-1.1,13.6-1.5c4.3-0.5,8.4-0.8,12.2-1.1c3.8-0.3,7.3-0.6,10.3-0.7c3.1-0.2,5.8-0.3,8-0.4
			c2.2-0.1,4-0.1,5.1-0.2c1.2,0,1.8,0,1.8,0s-2.5,0.4-6.9,1.2c-2.2,0.4-4.8,0.8-7.9,1.3c-3,0.5-6.5,1.1-10.2,1.7
			c-7.5,1.2-16.2,2.6-25.5,4.2c-4.7,0.8-9.5,1.6-14.4,2.4c-2.4,0.4-4.9,0.8-7.4,1.2c-2.5,0.4-5,0.9-7.4,1.3c-5,0.8-9.9,1.8-14.8,2.7
			c-4.9,0.9-9.7,1.9-14.3,2.7c-2.3,0.4-4.6,1-6.8,1.4c-2.2,0.5-4.4,0.9-6.5,1.4c-2.1,0.4-4.2,1-6.1,1.4c-2,0.5-3.9,0.9-5.7,1.3
			c-1.9,0.4-3.6,0.9-5.2,1.3c-1.7,0.4-3.2,0.8-4.7,1.2c-1.5,0.4-2.9,0.7-4.2,1.1c-1.3,0.4-2.5,0.7-3.5,1.1c-2.1,0.7-3.8,1.1-4.9,1.4
			C362.2,692.6,361.6,692.7,361.6,692.7z"/>
	</g>
</g>
<g id="Layer_16">
</g>
<g id="Layer_15">
</g>
<g id="Layer_14">
</g>
<g id="Layer_13">
</g>
<g id="Layer_12">
</g>
<g id="Layer_11">
</g>
<g id="Layer_10">
</g>
<g id="Layer_9">
</g>
<g id="Layer_8">
</g>
<g id="Layer_7">
</g>
<g id="Layer_6">
</g>
<g id="Layer_5">
	<path opacity="0.2" fill="#FFFFFF" stroke="#FFFFFF" stroke-miterlimit="10" d="M332.8,629.9c0,0,17.6,51.5,28.9,51.5
		c11.3,0,29.9-14.5,38-13.7c34.7,3.3,12.5,75.7,32,69.3s30.7-38,50-40c19.3-2,3.1,59.2,14.7,63.3c31.8,11.3,40.2-75.7,60-69.3
		s45,75.4,64.7,53.1c16.1-18.3-36.1-59.8,6.3-60.4c0,0,43,25.8,52.4,14c9.3-11.8-26.9-35.8-25-48.7c2.3-16,65.1,17.3,71.7,10
		c7.8-8.7-2.7-30-2.7-30l-100-25.3L542.2,628L463,599l-49,24L332.8,629.9z"/>
	<g>
		<path fill="#FFFFFF" d="M382.1,665.9l-14.9-11.8c-1.3-1-1.5-2.9-0.5-4.2l0,0c1-1.3,2.9-1.5,4.2-0.5l14.9,11.8
			c1.3,1,1.5,2.9,0.5,4.2l0,0C385.3,666.7,383.4,666.9,382.1,665.9z"/>
		<path fill="#FFFFFF" d="M449.8,704.6l-9.6,16.4c-0.8,1.4-2.7,1.9-4.1,1.1h0c-1.4-0.8-1.9-2.7-1.1-4.1l9.6-16.4
			c0.8-1.4,2.7-1.9,4.1-1.1l0,0C450.2,701.3,450.7,703.2,449.8,704.6z"/>
		<path fill="#FFFFFF" d="M427,655.2l9.9-16.2c0.9-1.4,2.7-1.9,4.1-1l0,0c1.4,0.9,1.9,2.7,1,4.1l-9.9,16.2c-0.9,1.4-2.7,1.9-4.1,1
			l0,0C426.5,658.5,426.1,656.7,427,655.2z"/>
		<path fill="#FFFFFF" d="M625.3,665.6l-3.8-18.6c-0.3-1.6,0.7-3.2,2.3-3.5l0,0c1.6-0.3,3.2,0.7,3.5,2.3l3.8,18.6
			c0.3,1.6-0.7,3.2-2.3,3.5l0,0C627.2,668.3,625.6,667.3,625.3,665.6z"/>
		<path fill="#FFFFFF" d="M502.8,650.4l-1.7-18.9c-0.1-1.7,1.1-3.1,2.7-3.3l0,0c1.7-0.1,3.1,1.1,3.3,2.7l1.7,18.9
			c0.1,1.7-1.1,3.1-2.7,3.3l0,0C504.4,653.3,502.9,652.1,502.8,650.4z"/>
		<path fill="#FFFFFF" d="M699.2,642.3l13.3-13.5c1.2-1.2,3.1-1.2,4.2,0l0,0c1.2,1.2,1.2,3.1,0,4.2l-13.3,13.5
			c-1.2,1.2-3.1,1.2-4.2,0l0,0C698,645.4,698,643.5,699.2,642.3z"/>
	</g>
</g>
<g id="Layer_4">
	<g>
		<path fill="#FFFFFF" d="M465,367.1l-14.9-11.8c-1.3-1-1.5-2.9-0.5-4.2l0,0c1-1.3,2.9-1.5,4.2-0.5l14.9,11.8c1.3,1,1.5,2.9,0.5,4.2
			l0,0C468.2,367.9,466.3,368.2,465,367.1z"/>
		<path fill="#FFFFFF" d="M410.1,431l-14.9-11.8c-1.3-1-1.5-2.9-0.5-4.2l0,0c1-1.3,2.9-1.5,4.2-0.5l14.9,11.8c1.3,1,1.5,2.9,0.5,4.2
			l0,0C413.3,431.8,411.4,432,410.1,431z"/>
		<path fill="#FFFFFF" d="M582.5,413.1l-3.8-18.6c-0.3-1.6,0.7-3.2,2.3-3.5l0,0c1.6-0.3,3.2,0.7,3.5,2.3l3.8,18.6
			c0.3,1.6-0.7,3.2-2.3,3.5l0,0C584.5,415.8,582.9,414.8,582.5,413.1z"/>
		<path fill="#FFFFFF" d="M625.3,377.7l-3.8-18.6c-0.3-1.6,0.7-3.2,2.3-3.5l0,0c1.6-0.3,3.2,0.7,3.5,2.3l3.8,18.6
			c0.3,1.6-0.7,3.2-2.3,3.5l0,0C627.2,380.4,625.6,379.3,625.3,377.7z"/>
		<path fill="#FFFFFF" d="M525.5,344.9l13.3-13.5c1.2-1.2,3.1-1.2,4.2,0l0,0c1.2,1.2,1.2,3.1,0,4.2l-13.3,13.5
			c-1.2,1.2-3.1,1.2-4.2,0l0,0C524.4,348,524.4,346.1,525.5,344.9z"/>
		<path fill="#FFFFFF" d="M650.5,431.7l13.3-13.5c1.2-1.2,3.1-1.2,4.2,0v0c1.2,1.2,1.2,3.1,0,4.2l-13.3,13.5c-1.2,1.2-3.1,1.2-4.2,0
			l0,0C649.4,434.8,649.4,432.9,650.5,431.7z"/>
		<path fill="#FFFFFF" d="M495.4,417.7l13.3-13.5c1.2-1.2,3.1-1.2,4.2,0v0c1.2,1.2,1.2,3.1,0,4.2l-13.3,13.5c-1.2,1.2-3.1,1.2-4.2,0
			v0C494.2,420.7,494.2,418.8,495.4,417.7z"/>
	</g>
</g>
<g id="Layer_3">
	<g>
		<path d="M594.5,674c0,0.5-0.1,1.1-0.4,1.6s-0.5,1.1-0.7,1.6c-0.9,1.7-2,3.6-3.4,5.6c-1.4,2-2.9,4-4.6,6.1c-1.6,2.1-3.4,4-5.1,6
			c-1.8,1.9-3.4,3.6-5,5.1c-1.3,1.3-2.9,2.7-4.6,4.2s-3.5,3-5.3,4.3c-1.8,1.3-3.7,2.5-5.6,3.4c-1.9,0.9-3.6,1.4-5.3,1.4
			c-0.9,0-1.9-0.3-3.1-0.9c-2.5-1.1-4.6-3.3-6.1-6.5c-0.7-1.6-1.3-3.1-1.8-4.6c-0.4-1.5-0.8-3.1-1-4.6c-0.2-1.6-0.4-3.3-0.6-5
			c-0.2-1.8-0.3-3.7-0.5-5.9c-5.1,9.5-11.7,17.9-19.8,25.3c-8.1,7.4-16.5,11.1-25.3,11.1c-2.4,0-4.2-1.3-5.5-3.8
			c-1.3-2.6-1.9-5.2-1.9-7.9c0-3.7,0.3-6.4,0.9-8.2c1.7-5.2,3.7-10.1,5.9-14.6c2.2-4.6,4.9-9,8.1-13.4c1-1.4,2.1-2.8,3.3-4.3
			c1.2-1.4,2.4-2.8,3.8-4.3c2.7-2.8,5.2-4.9,7.6-6.1c2.9-1.6,7.1-2.4,12.6-2.4c1.9,0,3.5,1.1,4.9,3.2c1.4,2.2,2.4,4.7,3.1,7.4
			c0.7,2.8,1,5.2,1,7c0.6-2,1.2-4,1.6-6.1c0.5-2.1,0.9-4.2,1.3-6.4s0.7-4.5,1-6.9c0.3-2.4,0.6-5,0.8-7.8c0.1-0.7,0.2-1.7,0.2-2.8
			c0.1-1.1,0.2-2.5,0.3-4c0.2-3.2,0.5-5.8,0.7-8c0.2-2.2,0.6-3.6,1-4.2c0.9-1.7,2.6-2.5,5.1-2.5c1.2,0,2.4,0.3,3.6,0.8
			c1.3,0.5,1.9,1.2,1.9,2.1c0,0.5-0.1,1.3-0.3,2.4c-0.2,1.1-0.4,2.5-0.8,4.3c-0.3,1.8-0.8,3.9-1.3,6.5c-0.5,2.6-1.2,5.7-1.8,9.2
			c-0.4,2.4-0.8,4.7-1.1,6.7s-0.7,3.9-0.9,5.6c-0.5,3.3-1,6.4-1.3,9.3c-0.3,2.9-0.5,5.8-0.5,8.8c0,0.3,0,1.1,0.1,2.3
			c0,1.2,0.1,2.6,0.2,4.3s0.3,3.4,0.5,5.2c0.2,1.8,0.4,3.5,0.8,5.1c0.3,1.5,0.7,2.8,1.2,3.8c0.4,1,1,1.5,1.6,1.5
			c0.9,0,1.6-0.1,2.3-0.2c0.7-0.2,1.4-0.4,2.1-0.8c0.7-0.4,1.5-0.8,2.4-1.4c0.9-0.5,1.9-1.2,3.1-2c1.2-0.8,2.5-1.7,3.8-2.9
			c1.4-1.1,2.7-2.3,4.1-3.6c1.4-1.3,2.7-2.6,4-3.9c1.3-1.3,2.4-2.5,3.4-3.6c2.4-2.6,4.8-5.2,7-7.8c2.2-2.6,4.2-4.8,5.9-6.7
			c0.1-0.1,0.4-0.2,0.9-0.3c0.5-0.1,0.8-0.2,0.9-0.2c0.2,0,0.4,0.1,0.5,0.4c0.1,0.3,0.1,0.6,0.2,0.9c0,0.4,0.1,0.8,0,1.2
			C594.5,673.3,594.5,673.7,594.5,674z M535,683.7c-1.1-0.2-1.9-0.8-2.4-1.6c-0.5-0.8-0.8-1.7-0.8-2.7c0-0.8,0.1-2,0.4-3.6
			c0.2-1.6,0.4-2.8,0.4-3.7c0-0.7-0.2-1.6-0.6-2.5c-0.4-0.9-0.9-1.8-1.5-2.6c-0.6-0.8-1.3-1.5-2-2c-0.8-0.5-1.5-0.8-2.2-0.8
			c-2.2,0-5.1,2.3-8.8,6.8c-1.9,2.3-3.6,4.5-5.2,6.6c-1.6,2.1-3,4.2-4.3,6.3c-1.4,2.3-2.6,4.3-3.6,6.2c-1,1.9-1.9,3.5-2.6,5
			c-2.4,5.1-3.6,9.2-3.6,12.2c0,3.8,1.3,5.7,3.8,5.7c2.3,0,5.4-1.3,9.4-4c4-2.7,7.2-5.3,9.5-7.6c2.3-2.4,4.3-4.4,5.8-6.1
			c1.5-1.7,2.8-3,3.7-4.1C532.1,689.3,533.7,686.7,535,683.7z"/>
		<path d="M648.9,684.8c0,0.9-0.3,2-1.1,3.5c-0.8,1.5-1.9,3.1-3.2,5c-1.4,1.9-3,3.8-4.8,5.9c-1.8,2.1-3.7,4.2-5.7,6.3
			c-2.3,2.4-4.7,4.8-7.2,7.1c-2.5,2.3-5.3,4.4-8.1,6.6c-5.7,4.2-10.8,6.3-15.3,6.3c-4.9,0-8.7-1.6-11.5-4.9
			c-2.7-3.3-4.6-7.4-5.6-12.1c-1-4.7-1.5-9.5-1.5-14.5c0-2.1,0.2-5.3,0.7-9.7c0.2-2.2,0.5-4.1,0.7-5.7c0.2-1.6,0.5-2.9,0.8-3.8
			c0.6-1.9,1.8-3.6,3.6-5c1.9-1.5,3.8-2.3,5.9-2.3c1.1,0,1.6,1,1.6,3.1c0,1.4-0.1,3-0.4,4.7c-0.3,1.8-0.5,3.5-0.8,5.2
			c-0.5,3.2-0.9,6.1-1.2,8.6s-0.4,4.8-0.4,6.6c0,4.1,0.6,8.3,1.7,12.5c1.1,4.3,3.2,6.4,6.2,6.4c3,0,6.5-1.1,10.5-3.3
			c2-1.1,4-2.4,6-3.8c2-1.4,4-2.9,6-4.6c2-1.7,4-3.4,5.9-5.2c1.9-1.7,3.7-3.5,5.5-5.3c1.8-1.8,3.4-3.5,4.8-5.1
			c1.4-1.6,2.7-3.1,3.7-4.4c0-0.1,0.1-0.2,0.2-0.4c0.1-0.2,0.2-0.4,0.3-0.6c0.1-0.2,0.2-0.3,0.4-0.5c0.1-0.1,0.2-0.2,0.4-0.1
			c0.6,0,1,0.4,1.3,1.3C648.7,683.6,648.9,684.3,648.9,684.8z M608.9,635.2c0,2.6-0.7,4.9-2.1,6.8c-1.3,1.9-3.3,2.8-5.9,2.8
			c-1.6,0-3.4-0.2-5.4-0.7c-2-0.5-2.9-1.3-2.9-2.4c0-2,0.6-3.9,1.9-5.7s2.7-3.3,4.5-4.4c1.4-0.8,2.3-1.2,2.7-1.2
			c2.3,0,4.1,0.3,5.4,0.9C608.2,631.9,608.9,633.2,608.9,635.2z"/>
		<path d="M717,682.6c0,1.5-0.5,2.8-1.6,4c-0.4,0.4-0.9,0.9-1.7,1.6c-0.8,0.7-1.5,1.3-2.1,1.9l-5.6,5.6c-1.1,1.1-2,2-3,2.8
			c-0.9,0.8-1.7,1.6-2.4,2.2c-1.2,1-2.6,2.1-4.2,3.5c-1.6,1.4-3.6,2.9-5.7,4.7c-4.2,3.5-8.1,6.4-11.7,8.6c-3.6,2.2-7.4,4-11.5,5.3
			c-4.1,1.3-8.4,2-13,2c-2.8,0.1-5.3-0.4-7.5-1.5c-2.2-1.1-4.1-2.5-5.6-4.3c-1.5-1.8-2.7-3.9-3.5-6.4c-0.8-2.4-1.2-5-1.1-7.8
			c0-5.4,1.1-10.8,3.4-16.2c2.3-5.4,5.4-10.7,9.2-16c2.1-2.8,4.6-5.4,7.5-7.9c2.9-2.5,5.5-3.8,7.9-3.8c1.3,0,2.7,1.1,4.3,3.2
			c0.8,1.1,1.6,2.2,2.3,3.4c0.7,1.2,1.4,2.5,2,3.8c1.2,2.6,1.8,4.6,1.8,5.7s-0.4,2.7-1.1,4.6c-0.7,1.9-1.6,2.8-2.6,2.8
			c-1.5,0-2.7-1-3.7-3c-0.5-1-0.8-1.9-1.1-2.6c-0.2-0.7-0.5-1.5-0.8-2.3c-0.9-2.4-1.7-4.2-2.4-5.3c-2.7,0.5-4.9,1.8-6.7,4
			c-0.9,1.1-1.7,2.3-2.7,3.8c-0.9,1.5-1.9,3.2-2.9,5c-0.8,1.5-1.6,3.1-2.3,4.9c-0.7,1.8-1.3,3.7-1.8,5.6c-0.5,1.9-0.9,3.9-1.2,5.8
			c-0.3,1.9-0.4,3.7-0.4,5.4c0,2.4,1,4.7,3.1,6.9c2.1,2.2,4.3,3.2,6.7,3.2c5.2,0,10.2-0.9,14.8-2.7c4.7-1.8,9.2-4.3,13.5-7.3
			c4.3-3,8.6-6.4,13-10.4c2.2-2,4.3-3.9,6.3-5.6c2-1.8,3.9-3.5,5.6-5.1c3-2.6,5.4-3.9,7.4-3.9C716.7,680.9,717,681.5,717,682.6z"/>
		<path d="M770.2,670.8c0,1.5-0.4,2.7-1.2,3.4c-0.8,0.8-1.8,1.5-2.8,2.1c-1.3,0.6-2.8,1.2-4.5,1.6c-1.6,0.5-3.3,0.9-5.1,1.3
			c-1.7,0.4-3.5,0.7-5.2,1c-1.8,0.3-3.4,0.5-5,0.6c-1.7,0.2-3.5,0.3-5.4,0.5c-1.9,0.2-3.8,0.3-5.6,0.5c-1.8,0.2-3.4,0.4-5,0.6
			c-1.5,0.2-2.8,0.5-3.7,0.9c-0.9,3.7-1.8,7.2-2.7,10.6c-1,3.4-1.8,6.7-2.4,10c-0.2,0.8-0.4,1.9-0.6,3.5c-0.3,1.5-0.5,3.2-0.8,4.9
			c-0.2,1.7-0.5,3.3-0.6,4.8c-0.2,1.5-0.3,2.6-0.3,3.2c0,1.7,0.3,2.9,0.8,3.8c0.5,0.8,1.1,1.5,1.7,2c0.6,0.5,1.2,1,1.7,1.4
			c0.5,0.4,0.8,1.1,0.8,2c0,0.6-0.3,1.1-0.8,1.6c-0.5,0.5-1.2,1-2,1.4c-0.8,0.4-1.6,0.7-2.5,0.9c-0.9,0.2-1.6,0.3-2.3,0.3
			c-1.2,0-2.2-0.3-3.2-1c-0.9-0.7-1.7-1.5-2.4-2.5c-0.7-1-1.2-2.2-1.5-3.6c-0.4-1.3-0.5-2.7-0.5-4.2c0-1.9,0.2-3.9,0.5-6
			c0.3-2.1,0.7-4.3,1.2-6.6c0.5-2.2,1-4.5,1.6-6.9c0.5-2.3,1.1-4.7,1.6-7c0.2-1,0.4-2,0.6-3c0.2-1,0.4-2,0.6-2.9
			c0.2-0.9,0.3-1.7,0.5-2.3c0.1-0.6,0.2-1,0.2-1.1c0-0.7-0.2-1.1-0.7-1.5s-1-0.5-1.7-0.5c-0.5,0-1.2,0-2.2,0.1c-1,0.1-2,0.2-3.1,0.3
			c-1.1,0.1-2.1,0.2-3.1,0.3s-1.7,0.1-2.1,0.1c-1.5,0-2.7-0.1-3.7-0.3c-1-0.2-1.8-0.5-2.5-1c-0.6-0.5-1.1-1.2-1.4-2
			c-0.3-0.9-0.5-2-0.5-3.4c0-0.6,0.3-1,0.8-1.3c0.5-0.3,1.2-0.6,1.9-0.7c0.8-0.1,1.6-0.2,2.4-0.2c0.9,0,1.6,0,2.3,0
			c0.5,0,1.4,0,2.6-0.2c1.2-0.1,2.5-0.2,3.8-0.3c1.3-0.1,2.6-0.2,3.8-0.3s2.1-0.2,2.6-0.2c0.2,0,0.5,0,0.9-0.1c0.3,0,0.7-0.2,1-0.3
			c0.3-0.2,0.7-0.5,0.9-0.9c0.3-0.4,0.5-1,0.7-1.8c0.3-1.3,0.6-2.7,1-4.4c0.4-1.7,0.8-3.4,1.3-5.2c0.4-1.8,0.8-3.5,1.3-5.1
			c0.4-1.6,0.8-3.1,1-4.2c0.4-1.1,0.7-2.4,0.9-3.7c0.3-1.3,0.5-2.6,0.7-3.9c0.2-1.3,0.5-2.6,0.8-3.8c0.3-1.2,0.7-2.3,1.1-3.4
			c0.9-2.1,2.3-3.2,4.3-3.2c3,0,4.5,1.7,4.5,5c0,2.1-0.4,4.5-1.3,7.1c-2,6.2-3.4,11.3-4.3,15.3c-0.9,4-1.4,6.7-1.4,8.1
			c0,1.5,0.8,2.3,2.3,2.3c1.8,0,3.5,0,5.2-0.1c1.6-0.1,3.2-0.2,4.9-0.3c1.6-0.1,3.4-0.3,5.2-0.5s3.9-0.4,6.2-0.7
			c1.6-0.2,3.2-0.4,4.7-0.7c1.5-0.3,2.9-0.6,4.1-0.8c1.3-0.3,2.4-0.5,3.4-0.8s1.8-0.4,2.4-0.5c0.4,0,0.9-0.1,1.3-0.2
			c0.4-0.1,0.8-0.1,1.1,0c0.3,0.1,0.5,0.2,0.7,0.5C770.1,669.7,770.2,670.2,770.2,670.8z"/>
		<path d="M838.2,673.4c0,0.7-0.2,1.4-0.5,2.1c-0.3,0.7-0.7,1.4-1.2,2.1c-0.5,0.7-1,1.3-1.6,1.9c-0.6,0.6-1.2,1.1-1.8,1.4
			c-1.4,0.9-3.4,1.8-6.1,2.5c-2.6,0.7-5.9,1.1-9.7,1.1c-3.1,0-6.2-0.4-9.3-1.2c-3.1-0.8-6.1-2.1-9-3.9c0.9,1.4,1.5,2.8,1.8,4.1
			c0.3,1.3,0.4,2.8,0.4,4.6c0,3.2-0.8,6.6-2.4,10.3c-1.6,3.7-3.6,7.1-6.2,10.2c-2.5,3.1-5.2,5.7-8,7.8c-1.6,1.2-3.3,2.2-5.2,3.1
			c-1.9,0.9-3.9,1.6-6,2.1c-2.1,0.6-4.2,1-6.5,1.2c-2.2,0.3-4.5,0.4-6.8,0.4c-1.6,0-3.1-0.5-4.6-1.5c-1.5-1-2.8-2.3-4-3.7
			c-1.2-1.5-2.1-3-2.8-4.7c-0.7-1.7-1.1-3.2-1.1-4.5c0-3.3,0.4-6.5,1.3-9.5c0.9-3,2.1-6,3.5-8.8c1.5-2.8,3.2-5.6,5.2-8.3
			c2-2.7,4-5.4,6.2-8.1c1.2-1.5,2.6-3,4.2-4.4c1.6-1.4,3.2-2.7,4.9-3.9c1.7-1.1,3.4-2.1,5.2-2.8c1.7-0.7,3.4-1.1,5-1.1
			c1.3,0,2.4,0.2,3.4,0.6c0.9,0.4,1.8,0.9,2.7,1.6c0.8,0.7,1.7,1.5,2.6,2.5c0.9,1,1.9,2.2,3,3.4c0.4,0.4,1.4,0.9,3,1.6
			c1.6,0.7,3.6,1.4,5.9,2.1c2.3,0.7,4.6,1.3,7.1,1.8c2.5,0.5,4.7,0.8,6.8,0.8c2,0,3.9-0.1,5.6-0.2s3.4-0.4,5-0.7
			c1.6-0.3,3.2-0.8,4.8-1.3c1.6-0.6,3.3-1.3,5.1-2.1C838.2,672.4,838.2,673,838.2,673.4z M792.7,688.1c0-1.1,0-2.4-0.2-3.9
			c-0.2-1.4-0.6-2.8-1.1-4.1c-0.5-1.3-1.2-2.3-2-3.1c-0.8-0.8-1.9-1.1-3.1-1c-1.9-0.7-3.4-1.5-4.6-2.3s-2.2-1.2-2.8-1.2
			c-0.5,0-1,0.2-1.6,0.5c-0.6,0.3-1.2,0.7-1.8,1.3s-1.2,1.2-1.9,1.9c-0.6,0.7-1.3,1.5-1.9,2.2c-1.2,1.6-2.4,3-3.4,4.3
			c-1,1.3-2,2.6-2.9,3.9c-0.9,1.3-1.8,2.6-2.7,4s-1.7,3-2.6,4.7c-0.4,0.7-0.7,1.6-1,2.6c-0.3,1-0.5,2.1-0.7,3.1
			c-0.2,1.1-0.4,2.2-0.5,3.2c-0.1,1.1-0.2,2-0.2,2.9c0,0.5,0.2,1.2,0.5,1.9c0.4,0.8,0.8,1.5,1.4,2.2c0.6,0.7,1.3,1.3,2,1.8
			c0.8,0.5,1.5,0.7,2.2,0.7c2.1,0,3.8-0.1,5.3-0.3c1.5-0.2,2.8-0.5,4.1-1c1.2-0.5,2.5-1.1,3.8-1.9c1.3-0.8,2.7-1.9,4.4-3.2
			c0.8-0.6,1.6-1.3,2.4-2.1c0.8-0.8,1.6-1.7,2.4-2.6c0.8-0.9,1.5-1.9,2.2-2.8c0.7-1,1.3-1.9,2-2.8c0.4-0.6,0.8-1.4,1-2.3
			c0.3-0.9,0.5-1.8,0.7-2.7c0.2-0.9,0.3-1.7,0.3-2.4C792.6,688.9,792.7,688.4,792.7,688.1z"/>
		<path d="M860.1,711.3c0,2.1-0.4,4.1-1.1,6.1c-0.7,2-1.7,3.8-3,5.6c-1.2,1.7-2.7,3.4-4.3,4.9c-1.6,1.5-3.3,2.8-5,3.8
			s-3.5,1.9-5.2,2.5c-1.8,0.6-3.4,0.9-4.8,0.9c-2,0-3.4-0.4-4-1.3c-0.7-0.9-1-2.2-1-3.8c0-1.5,0.3-2.7,0.9-3.4
			c0.6-0.8,1.4-1.5,2.4-2c0.1,0,0.3-0.1,0.7-0.2c0.3-0.1,0.7-0.1,1.1-0.1c0.4,0,0.8,0,1.2-0.1c0.4,0,0.7,0,0.9,0
			c0.3,0,0.7-0.1,1.2-0.2c0.5-0.1,1.1-0.3,1.7-0.5c0.6-0.2,1.2-0.5,1.9-0.9c0.7-0.3,1.3-0.7,1.8-1.2c1.6-1.3,2.8-2.8,3.4-4.4
			c0.7-1.6,1-3,1-4.3c0-1.6-0.5-3.1-1.5-4.5c-1-1.4-2.3-2.7-3.8-4.1c-1.5-1.3-3.2-2.6-5-4c-1.8-1.3-3.5-2.7-5-4.2
			c-1.5-1.5-2.8-3.1-3.8-4.7c-1-1.7-1.5-3.5-1.5-5.6c0-1,0.1-2.1,0.4-3.2c0.3-1.1,0.6-2.3,1-3.4c0.4-1.1,0.9-2.2,1.5-3.2
			c0.5-1,1.1-2,1.7-2.8c1-1.4,2-2.7,3.2-4.1c1.2-1.3,2.3-2.5,3.5-3.6c1.2-1,2.3-1.9,3.5-2.5c1.1-0.6,2.2-0.9,3.2-0.9
			c2.8,0,4.2,1.6,4.2,4.9c0,1.1-0.5,2.5-1.4,4c-0.9,1.5-2,2.9-3.3,4.2c-2,1.9-3.7,3.5-5.1,4.8s-2.8,2.7-4.1,4.1
			c0.9,1.4,2,2.6,3.1,3.8c1.1,1.1,2.2,2.2,3.4,3.3c1.2,1.1,2.4,2.1,3.7,3.1c1.2,1,2.5,2.1,3.7,3.2c1.1,1.1,2.2,2.1,3.3,3.2
			c1,1.1,2,2.2,2.8,3.4c0.8,1.2,1.5,2.4,2,3.6S860.1,709.9,860.1,711.3z"/>
	</g>
</g>
<g id="Layer_2">
	<path d="M329.6,719.4c0,0-59,0.6-74.8-27.2s-24.4-65.5,10-155.6S332.2,416,369.6,393.3s71.8-20.1,93.8,15.7
		c18.9,30.9,22,206.6,13.9,271.8s-17.6,115.7-17.6,115.7s7.3-96.7,7.3-137.7c0-41-5.9-190.9-10.9-216.3
		c-14.7-74.9-79.2-35.3-88.7-31.6s-52.6,27.5-91.6,125.6c-36.6,92.3-17.5,141.4-12.1,151.5C270.9,701.2,281.3,710.6,329.6,719.4z"/>
</g>
</svg>
